<svg width="20" height="20" viewBox="0 0 20 20" fill="none" xmlns="http://www.w3.org/2000/svg">
<path d="M11.5625 18.3333H8.4375C8.22916 18.3333 8.04861 18.2639 7.89583 18.125C7.74305 17.9861 7.65277 17.8125 7.625 17.6042L7.375 15.6667C7.19444 15.5972 7.02416 15.5139 6.86416 15.4167C6.70416 15.3194 6.54805 15.2153 6.39583 15.1042L4.58333 15.8542C4.38889 15.9236 4.19444 15.9306 4 15.875C3.80555 15.8194 3.65277 15.7014 3.54166 15.5208L2 12.8333C1.88889 12.6528 1.85416 12.4583 1.89583 12.25C1.9375 12.0417 2.04166 11.875 2.20833 11.75L3.77083 10.5625C3.75694 10.4653 3.75 10.3714 3.75 10.2808V9.71916C3.75 9.62861 3.75694 9.53472 3.77083 9.4375L2.20833 8.25C2.04166 8.125 1.9375 7.95833 1.89583 7.75C1.85416 7.54166 1.88889 7.34722 2 7.16666L3.54166 4.47916C3.63889 4.28472 3.78805 4.16305 3.98916 4.11416C4.19027 4.06528 4.38833 4.07583 4.58333 4.14583L6.39583 4.89583C6.54861 4.78472 6.70833 4.68055 6.875 4.58333C7.04166 4.48611 7.20833 4.40278 7.375 4.33333L7.625 2.39583C7.65277 2.1875 7.74305 2.01389 7.89583 1.875C8.04861 1.73611 8.22916 1.66666 8.4375 1.66666H11.5625C11.7708 1.66666 11.9514 1.73611 12.1042 1.875C12.2569 2.01389 12.3472 2.1875 12.375 2.39583L12.625 4.33333C12.8056 4.40278 12.9758 4.48611 13.1358 4.58333C13.2958 4.68055 13.4519 4.78472 13.6042 4.89583L15.4167 4.14583C15.6111 4.07639 15.8056 4.06944 16 4.125C16.1944 4.18055 16.3472 4.29861 16.4583 4.47916L18 7.16666C18.1111 7.34722 18.1458 7.54166 18.1042 7.75C18.0625 7.95833 17.9583 8.125 17.7917 8.25L16.2292 9.4375C16.2431 9.53472 16.25 9.62861 16.25 9.71916V10.2808C16.25 10.3714 16.2361 10.4653 16.2083 10.5625L17.7708 11.75C17.9375 11.875 18.0417 12.0417 18.0833 12.25C18.125 12.4583 18.0903 12.6528 17.9792 12.8333L16.4375 15.5C16.3264 15.6806 16.17 15.8022 15.9683 15.865C15.7667 15.9278 15.5689 15.9242 15.375 15.8542L13.6042 15.1042C13.4514 15.2153 13.2917 15.3194 13.125 15.4167C12.9583 15.5139 12.7917 15.5972 12.625 15.6667L12.375 17.6042C12.3472 17.8125 12.2569 17.9861 12.1042 18.125C11.9514 18.2639 11.7708 18.3333 11.5625 18.3333ZM10.0417 12.9167C10.8472 12.9167 11.5347 12.6319 12.1042 12.0625C12.6736 11.4931 12.9583 10.8056 12.9583 10C12.9583 9.19444 12.6736 8.50694 12.1042 7.9375C11.5347 7.36805 10.8472 7.08333 10.0417 7.08333C9.22222 7.08333 8.53111 7.36805 7.96833 7.9375C7.40555 8.50694 7.12444 9.19444 7.125 10C7.125 10.8056 7.40611 11.4931 7.96833 12.0625C8.53055 12.6319 9.22166 12.9167 10.0417 12.9167Z" fill="white"/>
</svg>
