<svg width="20" height="20" viewBox="0 0 20 20" fill="none" xmlns="http://www.w3.org/2000/svg">
<path d="M16.475 6.025L16.4834 6.01667L13.3834 2.91667L12.5 3.8L14.2584 5.55833C13.475 5.85833 12.9167 6.60833 12.9167 7.5C12.9167 7.77359 12.9706 8.0445 13.0753 8.29726C13.18 8.55002 13.3334 8.77968 13.5269 8.97314C13.9176 9.36384 14.4475 9.58333 15 9.58333C15.3 9.58333 15.575 9.51667 15.8334 9.40833V15.4167C15.8334 15.875 15.4584 16.25 15 16.25C14.5417 16.25 14.1667 15.875 14.1667 15.4167V11.6667C14.1667 10.75 13.4167 10 12.5 10H11.6667V4.16667C11.6667 3.25 10.9167 2.5 10 2.5H5.00004C4.08337 2.5 3.33337 3.25 3.33337 4.16667V17.5H11.6667V11.25H12.9167V15.4167C12.9167 15.9692 13.1362 16.4991 13.5269 16.8898C13.9176 17.2805 14.4475 17.5 15 17.5C15.5526 17.5 16.0825 17.2805 16.4732 16.8898C16.8639 16.4991 17.0834 15.9692 17.0834 15.4167V7.5C17.0834 6.925 16.85 6.4 16.475 6.025ZM10 8.33333H5.00004V4.16667H10V8.33333ZM15 8.33333C14.5417 8.33333 14.1667 7.95833 14.1667 7.5C14.1667 7.04167 14.5417 6.66667 15 6.66667C15.4584 6.66667 15.8334 7.04167 15.8334 7.5C15.8334 7.95833 15.4584 8.33333 15 8.33333Z" fill="white"/>
</svg>
