<svg width="139" height="139" viewBox="0 0 139 139" fill="none" xmlns="http://www.w3.org/2000/svg">
<path d="M69.5 127.417C101.486 127.417 127.417 101.486 127.417 69.5C127.417 37.5135 101.486 11.5833 69.5 11.5833C37.5135 11.5833 11.5833 37.5135 11.5833 69.5C11.5833 101.486 37.5135 127.417 69.5 127.417Z" stroke="white" stroke-opacity="0.15" stroke-width="3"/>
<path d="M52.125 98.4583C57.0479 94.8096 63.0423 92.6667 69.5 92.6667C75.9577 92.6667 81.9521 94.8096 86.875 98.4583" stroke="white" stroke-opacity="0.15" stroke-width="3" stroke-linecap="round"/>
<path d="M86.875 69.5C90.0736 69.5 92.6666 65.6105 92.6666 60.8125C92.6666 56.0145 90.0736 52.125 86.875 52.125C83.6763 52.125 81.0833 56.0145 81.0833 60.8125C81.0833 65.6105 83.6763 69.5 86.875 69.5Z" fill="white" fill-opacity="0.15"/>
<path d="M52.125 69.5C55.3236 69.5 57.9166 65.6105 57.9166 60.8125C57.9166 56.0145 55.3236 52.125 52.125 52.125C48.9263 52.125 46.3333 56.0145 46.3333 60.8125C46.3333 65.6105 48.9263 69.5 52.125 69.5Z" fill="white" fill-opacity="0.15"/>
</svg>
