<svg xmlns="http://www.w3.org/2000/svg" width="18" height="18" viewBox="0 0 18 18" fill="none">
  <path d="M11.4357 12.0825L12.6957 10.8225C12.8654 10.6549 13.0801 10.5402 13.3137 10.4923C13.5474 10.4443 13.7899 10.4653 14.0119 10.5525L15.5475 11.1656C15.7719 11.2567 15.9642 11.4121 16.1004 11.6123C16.2365 11.8125 16.3103 12.0486 16.3125 12.2906V15.1031C16.3112 15.2678 16.2766 15.4306 16.2108 15.5815C16.1449 15.7325 16.0492 15.8685 15.9294 15.9815C15.8096 16.0945 15.6681 16.1821 15.5136 16.239C15.359 16.2959 15.1945 16.3209 15.03 16.3125C4.26942 15.6431 2.09817 6.53065 1.68754 3.04315C1.66848 2.87189 1.6859 2.69853 1.73865 2.53448C1.79139 2.37044 1.87828 2.21942 1.99358 2.09136C2.10889 1.96331 2.25 1.86111 2.40763 1.79151C2.56527 1.7219 2.73585 1.68647 2.90817 1.68752H5.62504C5.86749 1.68824 6.10417 1.76147 6.30465 1.8978C6.50514 2.03413 6.66025 2.22732 6.75004 2.45252L7.36317 3.98815C7.45331 4.20925 7.47631 4.45201 7.42929 4.6861C7.38227 4.9202 7.26732 5.13525 7.09879 5.3044L5.83879 6.5644C5.83879 6.5644 6.56442 11.475 11.4357 12.0825Z" fill="#5763D0"/>
</svg>