<svg xmlns="http://www.w3.org/2000/svg" width="18" height="18" viewBox="0 0 18 18" fill="none">
  <g clip-path="url(#clip0_32_1502)">
    <path d="M2.4 15V15.6H3.6V15H2.4ZM8.4 15V15.6H9.6V15H8.4ZM3.6 15V14.4H2.4V15H3.6ZM8.4 14.4V15H9.6V14.4H8.4ZM6 12C6.63652 12 7.24697 12.2529 7.69706 12.703C8.14714 13.1531 8.4 13.7635 8.4 14.4H9.6C9.6 13.4452 9.22072 12.5296 8.54558 11.8544C7.87045 11.1793 6.95478 10.8 6 10.8V12ZM3.6 14.4C3.6 13.7635 3.85286 13.1531 4.30294 12.703C4.75303 12.2529 5.36348 12 6 12V10.8C5.04522 10.8 4.12955 11.1793 3.45442 11.8544C2.77928 12.5296 2.4 13.4452 2.4 14.4H3.6ZM6 4.80002C5.36348 4.80002 4.75303 5.05288 4.30294 5.50297C3.85286 5.95306 3.6 6.5635 3.6 7.20002H4.8C4.8 6.88176 4.92643 6.57654 5.15147 6.3515C5.37652 6.12645 5.68174 6.00002 6 6.00002V4.80002ZM8.4 7.20002C8.4 6.5635 8.14714 5.95306 7.69706 5.50297C7.24697 5.05288 6.63652 4.80002 6 4.80002V6.00002C6.31826 6.00002 6.62348 6.12645 6.84853 6.3515C7.07357 6.57654 7.2 6.88176 7.2 7.20002H8.4ZM6 9.60002C6.63652 9.60002 7.24697 9.34717 7.69706 8.89708C8.14714 8.44699 8.4 7.83654 8.4 7.20002H7.2C7.2 7.51828 7.07357 7.82351 6.84853 8.04855C6.62348 8.2736 6.31826 8.40002 6 8.40002V9.60002ZM6 8.40002C5.68174 8.40002 5.37652 8.2736 5.15147 8.04855C4.92643 7.82351 4.8 7.51828 4.8 7.20002H3.6C3.6 7.83654 3.85286 8.44699 4.30294 8.89708C4.75303 9.34717 5.36348 9.60002 6 9.60002V8.40002ZM1.8 3.60002H16.2V2.40002H1.8V3.60002ZM16.8 4.20002V13.8H18V4.20002H16.8ZM16.2 14.4H1.8V15.6H16.2V14.4ZM1.2 13.8V4.20002H0V13.8H1.2ZM1.8 14.4C1.64087 14.4 1.48826 14.3368 1.37574 14.2243C1.26321 14.1118 1.2 13.9592 1.2 13.8H0C0 14.2774 0.189642 14.7353 0.527208 15.0728C0.864773 15.4104 1.32261 15.6 1.8 15.6V14.4ZM16.8 13.8C16.8 13.9592 16.7368 14.1118 16.6243 14.2243C16.5117 14.3368 16.3591 14.4 16.2 14.4V15.6C16.6774 15.6 17.1352 15.4104 17.4728 15.0728C17.8104 14.7353 18 14.2774 18 13.8H16.8ZM16.2 3.60002C16.3591 3.60002 16.5117 3.66324 16.6243 3.77576C16.7368 3.88828 16.8 4.04089 16.8 4.20002H18C18 3.72263 17.8104 3.2648 17.4728 2.92723C17.1352 2.58967 16.6774 2.40002 16.2 2.40002V3.60002ZM1.8 2.40002C1.32261 2.40002 0.864773 2.58967 0.527208 2.92723C0.189642 3.2648 0 3.72263 0 4.20002H1.2C1.2 4.04089 1.26321 3.88828 1.37574 3.77576C1.48826 3.66324 1.64087 3.60002 1.8 3.60002V2.40002ZM10.8 7.20002H14.4V6.00002H10.8V7.20002ZM10.8 10.8H14.4V9.60002H10.8V10.8Z" fill="#5763D0"/>
  </g>
  <defs>
    <clipPath id="clip0_32_1502">
      <rect width="18" height="18" fill="white"/>
    </clipPath>
  </defs>
</svg>