<svg width="151" height="225" viewBox="0 0 151 225" fill="none" xmlns="http://www.w3.org/2000/svg">
<rect width="151" height="225" rx="5" fill="white" fill-opacity="0.05"/>
<path d="M75.5 120.781C79.1589 120.781 82.125 117.815 82.125 114.156C82.125 110.497 79.1589 107.531 75.5 107.531C71.8411 107.531 68.875 110.497 68.875 114.156C68.875 117.815 71.8411 120.781 75.5 120.781Z" fill="white" fill-opacity="0.15"/>
<path d="M93.7188 100.906H87.6113C87.3008 100.906 86.9157 100.705 86.6155 100.389L83.9303 96.1507C83.8878 96.0835 83.8404 96.0195 83.7885 95.9592C82.861 94.8775 81.6074 94.2812 80.2617 94.2812H70.7383C69.3926 94.2812 68.139 94.8775 67.2115 95.9592C67.1596 96.0195 67.1122 96.0835 67.0697 96.1507L64.3845 100.395C64.1547 100.645 63.8317 100.912 63.4922 100.912V100.084C63.4922 99.6451 63.3177 99.2238 63.0071 98.9132C62.6965 98.6026 62.2752 98.4281 61.8359 98.4281H59.3516C58.9123 98.4281 58.491 98.6026 58.1804 98.9132C57.8698 99.2238 57.6953 99.6451 57.6953 100.084V100.912H57.2812C55.9639 100.914 54.7009 101.438 53.7693 102.369C52.8378 103.301 52.3139 104.564 52.3125 105.881V125.75C52.3139 127.067 52.8378 128.33 53.7693 129.262C54.7009 130.193 55.9639 130.717 57.2812 130.719H93.7188C95.0361 130.717 96.2991 130.193 97.2307 129.262C98.1622 128.33 98.6861 127.067 98.6875 125.75V105.875C98.6861 104.558 98.1622 103.295 97.2307 102.363C96.2991 101.432 95.0361 100.908 93.7188 100.906ZM75.5 124.094C73.5345 124.094 71.6132 123.511 69.979 122.419C68.3448 121.327 67.0711 119.775 66.3189 117.959C65.5668 116.143 65.37 114.145 65.7534 112.218C66.1369 110.29 67.0833 108.519 68.4731 107.129C69.8629 105.74 71.6336 104.793 73.5613 104.41C75.489 104.026 77.4871 104.223 79.3029 104.975C81.1188 105.727 82.6708 107.001 83.7627 108.635C84.8547 110.269 85.4375 112.191 85.4375 114.156C85.4345 116.791 84.3865 119.317 82.5235 121.18C80.6606 123.043 78.1347 124.091 75.5 124.094Z" fill="white" fill-opacity="0.15"/>
</svg>
