<svg xmlns="http://www.w3.org/2000/svg" width="22" height="23" viewBox="0 0 22 23" fill="none">
  <path d="M1.85801 18.5469C3.03625 16.479 4.87606 14.8677 7.08129 13.9724C5.98465 13.15 5.1746 12.0033 4.76587 10.6948C4.35714 9.3864 4.37047 7.98252 4.80395 6.68207C5.23743 5.38162 6.0691 4.25053 7.18115 3.44901C8.29319 2.64749 9.62924 2.21619 11 2.21619C12.3708 2.21619 13.7069 2.64749 14.8189 3.44901C15.931 4.25053 16.7626 5.38162 17.1961 6.68207C17.6296 7.98252 17.6429 9.3864 17.2342 10.6948C16.8255 12.0033 16.0154 13.15 14.9188 13.9724C17.124 14.8677 18.9638 16.479 20.1421 18.5469C20.2151 18.6643 20.2637 18.7952 20.2852 18.9317C20.3066 19.0683 20.3003 19.2078 20.2667 19.3419C20.2332 19.476 20.173 19.602 20.0898 19.7124C20.0065 19.8228 19.902 19.9153 19.7823 19.9844C19.6626 20.0536 19.5302 20.098 19.393 20.115C19.2558 20.1319 19.1166 20.1211 18.9836 20.0832C18.8507 20.0453 18.7267 19.9811 18.6191 19.8943C18.5115 19.8075 18.4224 19.7 18.3571 19.5781C16.8 16.8866 14.05 15.2813 11 15.2813C7.95012 15.2813 5.20012 16.8874 3.64293 19.5781C3.50155 19.8055 3.27731 19.9689 3.01761 20.0339C2.75791 20.0989 2.48312 20.0604 2.25132 19.9265C2.01952 19.7925 1.84888 19.5737 1.77548 19.3163C1.70208 19.0588 1.73168 18.7829 1.85801 18.5469ZM15.4688 8.75001C15.4688 7.86618 15.2067 7.00219 14.7157 6.26731C14.2246 5.53243 13.5267 4.95966 12.7102 4.62143C11.8936 4.2832 10.9951 4.1947 10.1282 4.36713C9.26137 4.53956 8.46512 4.96517 7.84015 5.59013C7.21519 6.2151 6.78958 7.01135 6.61715 7.8782C6.44473 8.74506 6.53322 9.64357 6.87145 10.4601C7.20968 11.2767 7.78245 11.9746 8.51733 12.4656C9.25222 12.9567 10.1162 13.2188 11 13.2188C12.1848 13.2174 13.3207 12.7461 14.1584 11.9084C14.9962 11.0706 15.4674 9.93478 15.4688 8.75001Z" fill="#5763D0"/>
</svg>